<svg width="219" height="125" viewBox="0 0 219 125" fill="none" xmlns="http://www.w3.org/2000/svg">
<rect x="26" y="28" width="171" height="76" rx="15" fill="url(#paint0_linear_1_32)"/>
<rect x="36" y="18" width="171" height="76" rx="15" fill="#5AFFA6" fill-opacity="0.5"/>
<path d="M94.1832 73.4773C92.7131 73.4773 91.4524 73.2749 90.4013 72.87C89.3572 72.4723 88.5263 71.929 87.9084 71.2401C87.2905 70.5511 86.8892 69.777 86.7045 68.9176L90.902 68.353C91.0298 68.6797 91.2322 68.9851 91.5092 69.2692C91.7862 69.5533 92.152 69.7805 92.6065 69.951C93.0682 70.1286 93.6293 70.2173 94.2898 70.2173C95.277 70.2173 96.0902 69.9759 96.7294 69.4929C97.3757 69.017 97.6989 68.218 97.6989 67.0959V64.1023H97.5071C97.3082 64.5568 97.0099 64.9865 96.6122 65.3913C96.2145 65.7962 95.7031 66.1264 95.0781 66.3821C94.4531 66.6378 93.7074 66.7656 92.8409 66.7656C91.6122 66.7656 90.4936 66.4815 89.4851 65.9134C88.4837 65.3381 87.6847 64.4609 87.0881 63.282C86.4986 62.0959 86.2038 60.5973 86.2038 58.7862C86.2038 56.9325 86.5057 55.3842 87.1094 54.1413C87.7131 52.8984 88.5156 51.968 89.517 51.3501C90.5256 50.7322 91.63 50.4233 92.8303 50.4233C93.7464 50.4233 94.5135 50.5795 95.1314 50.892C95.7493 51.1974 96.2464 51.581 96.6229 52.0426C97.0064 52.4972 97.3011 52.9446 97.5071 53.3849H97.6776V50.6364H102.184V67.1598C102.184 68.5518 101.843 69.7166 101.161 70.6541C100.479 71.5916 99.5348 72.2947 98.3274 72.7635C97.1271 73.2393 95.7457 73.4773 94.1832 73.4773ZM94.2791 63.3565C95.0107 63.3565 95.6286 63.1754 96.1328 62.8132C96.6442 62.4439 97.0348 61.9183 97.3047 61.2365C97.5817 60.5476 97.7202 59.7237 97.7202 58.7649C97.7202 57.8061 97.5852 56.9751 97.3153 56.272C97.0455 55.5618 96.6548 55.0114 96.1435 54.6207C95.6321 54.2301 95.0107 54.0348 94.2791 54.0348C93.5334 54.0348 92.9048 54.2372 92.3935 54.642C91.8821 55.0398 91.495 55.5937 91.2322 56.304C90.9695 57.0142 90.8381 57.8345 90.8381 58.7649C90.8381 59.7095 90.9695 60.5263 91.2322 61.2152C91.5021 61.897 91.8892 62.4261 92.3935 62.8026C92.9048 63.1719 93.5334 63.3565 94.2791 63.3565ZM113.189 67.3196C111.534 67.3196 110.103 66.968 108.896 66.2649C107.695 65.5547 106.768 64.5675 106.115 63.3033C105.462 62.032 105.135 60.5582 105.135 58.8821C105.135 57.1918 105.462 55.7145 106.115 54.4503C106.768 53.179 107.695 52.1918 108.896 51.4886C110.103 50.7784 111.534 50.4233 113.189 50.4233C114.844 50.4233 116.271 50.7784 117.472 51.4886C118.679 52.1918 119.609 53.179 120.263 54.4503C120.916 55.7145 121.243 57.1918 121.243 58.8821C121.243 60.5582 120.916 62.032 120.263 63.3033C119.609 64.5675 118.679 65.5547 117.472 66.2649C116.271 66.968 114.844 67.3196 113.189 67.3196ZM113.21 63.804C113.963 63.804 114.592 63.5909 115.096 63.1648C115.6 62.7315 115.98 62.142 116.236 61.3963C116.499 60.6506 116.63 59.8018 116.63 58.8501C116.63 57.8984 116.499 57.0497 116.236 56.304C115.98 55.5582 115.6 54.9687 115.096 54.5355C114.592 54.1023 113.963 53.8857 113.21 53.8857C112.45 53.8857 111.811 54.1023 111.293 54.5355C110.781 54.9687 110.394 55.5582 110.131 56.304C109.876 57.0497 109.748 57.8984 109.748 58.8501C109.748 59.8018 109.876 60.6506 110.131 61.3963C110.394 62.142 110.781 62.7315 111.293 63.1648C111.811 63.5909 112.45 63.804 113.21 63.804ZM131.587 67.3196C129.933 67.3196 128.501 66.968 127.294 66.2649C126.094 65.5547 125.167 64.5675 124.513 63.3033C123.86 62.032 123.533 60.5582 123.533 58.8821C123.533 57.1918 123.86 55.7145 124.513 54.4503C125.167 53.179 126.094 52.1918 127.294 51.4886C128.501 50.7784 129.933 50.4233 131.587 50.4233C133.242 50.4233 134.67 50.7784 135.87 51.4886C137.077 52.1918 138.008 53.179 138.661 54.4503C139.315 55.7145 139.641 57.1918 139.641 58.8821C139.641 60.5582 139.315 62.032 138.661 63.3033C138.008 64.5675 137.077 65.5547 135.87 66.2649C134.67 66.968 133.242 67.3196 131.587 67.3196ZM131.609 63.804C132.362 63.804 132.99 63.5909 133.494 63.1648C133.999 62.7315 134.379 62.142 134.634 61.3963C134.897 60.6506 135.028 59.8018 135.028 58.8501C135.028 57.8984 134.897 57.0497 134.634 56.304C134.379 55.5582 133.999 54.9687 133.494 54.5355C132.99 54.1023 132.362 53.8857 131.609 53.8857C130.849 53.8857 130.21 54.1023 129.691 54.5355C129.18 54.9687 128.793 55.5582 128.53 56.304C128.274 57.0497 128.146 57.8984 128.146 58.8501C128.146 59.8018 128.274 60.6506 128.53 61.3963C128.793 62.142 129.18 62.7315 129.691 63.1648C130.21 63.5909 130.849 63.804 131.609 63.804ZM148.622 67.2663C147.379 67.2663 146.254 66.9467 145.245 66.3075C144.244 65.6612 143.448 64.7131 142.859 63.4631C142.276 62.206 141.985 60.6648 141.985 58.8395C141.985 56.9645 142.287 55.4055 142.891 54.1626C143.494 52.9126 144.297 51.9787 145.298 51.3608C146.307 50.7358 147.411 50.4233 148.612 50.4233C149.528 50.4233 150.291 50.5795 150.902 50.892C151.52 51.1974 152.017 51.581 152.393 52.0426C152.777 52.4972 153.068 52.9446 153.267 53.3849H153.406V45.1818H157.933V67H153.459V64.3793H153.267C153.054 64.8338 152.752 65.2848 152.362 65.7322C151.978 66.1726 151.477 66.5384 150.859 66.8295C150.249 67.1207 149.503 67.2663 148.622 67.2663ZM150.06 63.6548C150.792 63.6548 151.41 63.456 151.914 63.0582C152.425 62.6534 152.816 62.0888 153.086 61.3643C153.363 60.6399 153.501 59.7912 153.501 58.8182C153.501 57.8452 153.366 57 153.097 56.2827C152.827 55.5653 152.436 55.0114 151.925 54.6207C151.413 54.2301 150.792 54.0348 150.06 54.0348C149.315 54.0348 148.686 54.2372 148.175 54.642C147.663 55.0469 147.276 55.608 147.013 56.3253C146.751 57.0426 146.619 57.8736 146.619 58.8182C146.619 59.7699 146.751 60.6115 147.013 61.343C147.283 62.0675 147.67 62.6357 148.175 63.0476C148.686 63.4524 149.315 63.6548 150.06 63.6548Z" fill="white"/>
<path d="M47.4715 111.128C51.1002 112.63 55.9545 112.621 56.1609 112.62C56.353 112.619 56.5364 112.555 56.6859 112.443C56.786 112.368 56.8704 112.271 56.9324 112.158C57.087 111.876 57.0747 111.534 56.9007 111.268C56.8688 111.219 53.7297 106.345 54.7325 101.213C55.7993 95.7555 54.5184 92.5955 53.2559 90.9054C52.1474 89.4226 50.7301 88.5926 49.5104 88.2249C49.8792 87.167 50.2704 86.0899 50.7063 84.9753C52.5145 80.3528 51.0448 75.0511 46.7728 70.7939C42.3232 66.3601 34.487 63.1835 26.7987 65.8467C23.9793 62.4807 21.2164 62.9431 19.9017 63.4554C17.7219 60.7437 13.8482 61.3108 12.5131 61.5074C12.4261 61.5199 12.3513 61.5317 12.2929 61.5396C11.9053 61.4872 11.5211 61.6993 11.3632 62.0674C11.3278 62.1489 7.96642 70.1591 13.7603 75.7251C13.4672 78.7367 14.171 81.8558 16.8667 84.468C16.546 87.8023 17.1325 91.3872 19.3057 95.0707C23.8594 102.79 33.0858 108.138 46.73 110.969C47.0573 111.037 47.3025 111.088 47.4715 111.128ZM53.0178 100.905C52.2155 105.011 53.6669 108.838 54.649 110.823C53.0265 110.717 50.4134 110.414 48.3017 109.573C45.6692 106.118 45.9163 99.2288 48.9503 89.8815C49.8544 90.1471 50.9731 90.7839 51.849 91.9563C53.3624 93.9815 53.7666 97.0756 53.0178 100.905ZM12.7824 63.2227C14.6212 62.9553 17.1293 62.8327 18.5265 64.5435C17.5608 65.8535 15.1327 69.4353 14.1357 73.5447C10.9643 69.6132 12.2494 64.768 12.7824 63.2227ZM20.196 65.2065C20.6554 64.9308 22.8472 63.8729 25.4374 66.9554C25.0342 67.5867 24.4964 68.3358 23.8948 69.1736C23.8935 69.1756 23.8921 69.1775 23.8907 69.1794C21.6858 72.2499 18.3869 76.8518 17.2183 82.2583C12.2106 75.7945 19.3677 66.265 20.196 65.2065ZM20.8147 94.1747C15.068 84.435 21.4767 75.5101 25.3058 70.178C25.3091 70.1733 25.3124 70.1687 25.3157 70.1641C26.0203 69.183 26.6394 68.3208 27.0893 67.5825C34.1471 65.0003 41.4125 67.9317 45.5279 72.0324C49.3018 75.7927 50.6287 80.4028 49.0793 84.3645C45.9293 92.4181 43.028 102.846 45.9117 109.009C33.4215 106.224 24.9811 101.237 20.8147 94.1747Z" fill="black"/>
<path d="M20.196 65.2065C20.6554 64.9308 22.8472 63.8729 25.4374 66.9554C25.0342 67.5867 24.4964 68.3358 23.8948 69.1736L23.8907 69.1794C21.6858 72.2499 18.3869 76.8518 17.2183 82.2583C12.2106 75.7945 19.3677 66.265 20.196 65.2065Z" fill="#F1DDCA"/>
<path d="M53.0178 100.905C52.2155 105.011 53.6669 108.838 54.649 110.823C53.0265 110.717 50.4134 110.414 48.3017 109.573C45.6692 106.118 45.9163 99.2288 48.9503 89.8815C49.8544 90.1471 50.9731 90.7839 51.849 91.9563C53.3624 93.9815 53.7666 97.0756 53.0178 100.905Z" fill="#F1DDCA"/>
<path d="M20.8147 94.1747C15.068 84.435 21.4767 75.5101 25.3058 70.178L25.3157 70.1641C26.0203 69.183 26.6394 68.3208 27.0893 67.5825C34.1471 65.0003 41.4125 67.9317 45.5279 72.0324C49.3018 75.7927 50.6287 80.4028 49.0793 84.3645C45.9293 92.4181 43.028 102.846 45.9117 109.009C33.4215 106.224 24.9811 101.237 20.8147 94.1747Z" fill="#F1DDCA"/>
<path d="M12.7824 63.2227C14.6212 62.9553 17.1293 62.8327 18.5265 64.5435C17.5608 65.8535 15.1327 69.4353 14.1357 73.5447C10.9643 69.6132 12.2494 64.768 12.7824 63.2227Z" fill="#F1DDCA"/>
<path d="M56.0001 105.091C56.0001 106.454 56.9721 108.355 61.6034 109.671C64.6202 110.528 68.6677 111 73.0001 111C81.4621 111 90 109.173 90 105.091C90 104.704 89.6844 104.391 89.2951 104.391H78.9192C84.2575 101.757 87.5289 96.0702 88.8915 93.2244C89.3748 92.2157 89.3868 91.0542 88.9246 90.0375C88.5466 89.2058 87.8757 88.5637 87.0538 88.2344C87.1043 88.0057 87.1357 87.773 87.1478 87.5374C87.2236 86.093 86.4705 84.6883 85.1332 83.7795C84.3584 83.2538 83.5596 83.0169 82.7066 83.0333C82.3711 81.0003 80.5894 79.4445 78.4486 79.4445C78.2995 79.4445 78.1499 79.4538 77.9961 79.4725C77.2395 77.4253 75.238 76 73 76C70.7621 76 68.7604 77.4253 68.004 79.4726C67.8498 79.4538 67.7001 79.4446 67.551 79.4446C65.4101 79.4446 63.6285 81.0004 63.293 83.0335C62.4508 83.0141 61.6416 83.2539 60.8669 83.7799C59.53 84.6882 58.7766 86.0928 58.8519 87.5375C58.8643 87.7734 58.8956 88.0062 58.9462 88.2345C58.1243 88.5636 57.4534 89.2055 57.0755 90.0371C56.6133 91.0539 56.6249 92.2157 57.1081 93.2244C58.471 96.07 61.7422 101.756 67.0808 104.391L56.7049 104.391C56.3156 104.391 56 104.704 56 105.091L56.0001 105.091ZM68.667 100.088C68.667 97.7152 70.6106 95.785 73.0001 95.785C75.3894 95.785 77.3331 97.7151 77.3331 100.088C77.3331 102.461 75.3895 104.391 73.0001 104.391C70.6105 104.391 68.667 102.461 68.667 100.088ZM58.3813 92.6232C58.0809 91.9968 58.0733 91.2451 58.3602 90.6134C58.5987 90.0888 59.0128 89.7133 59.5259 89.5245C60.2342 90.5753 62.1264 93.1707 64.037 93.974C64.1265 94.0116 64.2197 94.0296 64.3114 94.0296C64.5861 94.0296 64.8469 93.869 64.9608 93.6021C65.1125 93.2462 64.945 92.8355 64.5863 92.6847C62.9981 92.017 61.1158 89.4239 60.4743 88.4057C60.3505 88.106 60.2764 87.7903 60.2595 87.4656C60.2099 86.512 60.7345 85.5663 61.6624 84.9357C62.1674 84.5928 62.6382 84.4298 63.1565 84.4298C63.2394 84.4298 63.3307 84.4521 63.4164 84.4603C63.8555 85.8888 65.2235 89.6119 67.8764 90.8852C67.9751 90.9328 68.0798 90.9549 68.1827 90.9549C68.4446 90.9549 68.6959 90.8093 68.8177 90.5595C68.9871 90.2116 68.8404 89.793 68.4898 89.6248C66.0542 88.4559 64.8373 84.337 64.6526 83.6636C64.6891 82.1041 65.9718 80.8452 67.5508 80.8452C67.6489 80.8452 67.7516 80.8555 67.8577 80.8696C68.0571 82.3461 68.8038 86.5854 70.9721 88.2902C71.1015 88.392 71.2557 88.4413 71.4092 88.4413C71.6171 88.4413 71.8232 88.3503 71.9624 88.1758C72.204 87.8725 72.1524 87.4324 71.8472 87.1923C70.1368 85.8479 69.3822 81.9147 69.2133 80.3492C69.6417 78.6368 71.2154 77.4005 72.9997 77.4005C74.7844 77.4005 76.3581 78.637 76.7865 80.3496C76.6189 81.9141 75.8665 85.8449 74.1524 87.1921C73.8471 87.432 73.7954 87.8722 74.0372 88.1755C74.1765 88.3501 74.3825 88.441 74.5904 88.441C74.7439 88.441 74.8981 88.3918 75.0275 88.2899C77.1959 86.585 77.9425 82.3456 78.1419 80.8693C78.2478 80.8553 78.3506 80.8451 78.4485 80.8451C80.0384 80.8451 81.3306 82.1205 81.3527 83.6425C81.185 84.2593 79.9672 88.4455 77.5095 89.625C77.1587 89.7931 77.0122 90.2118 77.1815 90.5597C77.3031 90.8096 77.5546 90.9551 77.8165 90.9551C77.9195 90.9551 78.0241 90.9328 78.1229 90.8854C80.7795 89.6103 82.1472 85.8804 82.5846 84.4556C83.2066 84.3954 83.7514 84.5382 84.3371 84.9357C85.2653 85.5667 85.79 86.5124 85.74 87.4664C85.7231 87.7899 85.6494 88.1047 85.5259 88.4047C84.8852 89.4223 83.0019 92.017 81.4132 92.6848C81.0545 92.8355 80.8869 93.2464 81.0387 93.6022C81.1527 93.8692 81.4136 94.0297 81.6881 94.0297C81.7797 94.0297 81.8729 94.0117 81.9625 93.9741C83.8732 93.1708 85.7655 90.5754 86.4736 89.5245C86.9868 89.7132 87.4011 90.0889 87.6396 90.6138C87.9266 91.2454 87.9188 91.9964 87.6185 92.6232C86.2772 95.4235 82.9784 101.158 77.643 103.43C78.3315 102.49 78.7427 101.337 78.7427 100.088C78.7427 96.9436 76.1664 94.3853 72.9998 94.3853C69.8333 94.3853 67.2569 96.9437 67.2569 100.088C67.2569 101.337 67.6682 102.49 68.3567 103.43C63.0212 101.158 59.7223 95.4236 58.3812 92.6232L58.3813 92.6232ZM88.4111 105.791C87.2804 107.975 80.9169 109.6 72.9993 109.6C65.0822 109.6 58.7186 107.976 57.5879 105.791H88.4111Z" fill="black"/>
<path d="M68.667 100.088C68.667 97.7152 70.6106 95.785 73.0001 95.785C75.3894 95.785 77.3331 97.7151 77.3331 100.088C77.3331 102.461 75.3895 104.391 73.0001 104.391C70.6105 104.391 68.667 102.461 68.667 100.088Z" fill="white"/>
<path d="M88.4111 105.791C87.2804 107.975 80.9169 109.6 72.9993 109.6C65.0822 109.6 58.7186 107.976 57.5879 105.791H88.4111Z" fill="#BAAED6"/>
<path d="M58.3813 92.6232C58.0809 91.9968 58.0733 91.2451 58.3602 90.6134C58.5987 90.0888 59.0128 89.7133 59.5259 89.5245C60.2342 90.5753 62.1264 93.1707 64.037 93.974C64.1265 94.0116 64.2197 94.0296 64.3114 94.0296C64.5861 94.0296 64.8469 93.869 64.9608 93.6021C65.1125 93.2462 64.945 92.8355 64.5863 92.6847C62.9981 92.017 61.1158 89.4239 60.4743 88.4057C60.3505 88.106 60.2764 87.7903 60.2595 87.4656C60.2099 86.512 60.7345 85.5663 61.6624 84.9357C62.1674 84.5928 62.6382 84.4298 63.1565 84.4298C63.2394 84.4298 63.3307 84.4521 63.4164 84.4603C63.8555 85.8888 65.2235 89.6119 67.8764 90.8852C67.9751 90.9328 68.0798 90.9549 68.1827 90.9549C68.4446 90.9549 68.6959 90.8093 68.8177 90.5595C68.9871 90.2116 68.8404 89.793 68.4898 89.6248C66.0542 88.4559 64.8373 84.337 64.6526 83.6636C64.6891 82.1041 65.9718 80.8452 67.5508 80.8452C67.6489 80.8452 67.7516 80.8555 67.8577 80.8696C68.0571 82.3461 68.8038 86.5854 70.9721 88.2902C71.1015 88.392 71.2557 88.4413 71.4092 88.4413C71.6171 88.4413 71.8232 88.3503 71.9624 88.1758C72.204 87.8725 72.1524 87.4324 71.8472 87.1923C70.1368 85.8479 69.3822 81.9147 69.2133 80.3492C69.6417 78.6368 71.2154 77.4005 72.9997 77.4005C74.7844 77.4005 76.3581 78.637 76.7865 80.3496C76.6189 81.9141 75.8665 85.8449 74.1524 87.1921C73.8471 87.432 73.7954 87.8722 74.0372 88.1755C74.1765 88.3501 74.3825 88.441 74.5904 88.441C74.7439 88.441 74.8981 88.3918 75.0275 88.2899C77.1959 86.585 77.9425 82.3456 78.1419 80.8693C78.2478 80.8553 78.3506 80.8451 78.4485 80.8451C80.0384 80.8451 81.3306 82.1205 81.3527 83.6425C81.185 84.2593 79.9672 88.4455 77.5095 89.625C77.1587 89.7931 77.0122 90.2118 77.1815 90.5597C77.3031 90.8096 77.5546 90.9551 77.8165 90.9551C77.9195 90.9551 78.0241 90.9328 78.1229 90.8854C80.7795 89.6103 82.1472 85.8804 82.5846 84.4556C83.2066 84.3954 83.7514 84.5382 84.3371 84.9357C85.2653 85.5667 85.79 86.5124 85.74 87.4664C85.7231 87.7899 85.6494 88.1047 85.5259 88.4047C84.8852 89.4223 83.0019 92.017 81.4132 92.6848C81.0545 92.8355 80.8869 93.2464 81.0387 93.6022C81.1527 93.8692 81.4136 94.0297 81.6881 94.0297C81.7797 94.0297 81.8729 94.0117 81.9625 93.9741C83.8732 93.1708 85.7655 90.5754 86.4736 89.5245C86.9868 89.7132 87.4011 90.0889 87.6396 90.6138C87.9266 91.2454 87.9188 91.9964 87.6185 92.6232C86.2772 95.4235 82.9784 101.158 77.643 103.43C78.3315 102.49 78.7427 101.337 78.7427 100.088C78.7427 96.9436 76.1664 94.3853 72.9998 94.3853C69.8333 94.3853 67.2569 96.9437 67.2569 100.088C67.2569 101.337 67.6682 102.49 68.3567 103.43C63.0212 101.158 59.7223 95.4236 58.3812 92.6232L58.3813 92.6232Z" fill="#BAAED6"/>
<path d="M192.174 0.0769532C191.656 0.24677 190.858 0.764567 190.476 1.19768C189.899 1.84273 189.22 2.93797 187.998 5.22994C186.699 7.65784 186.3 8.34545 185.553 9.44914C184.704 10.6888 184.279 11.5291 183.829 12.8535C183.252 14.5429 182.964 16.1814 182.955 17.8454V18.7454L182.785 18.6436C181.868 18.0749 181.274 17.769 180.374 17.3872C177.471 16.173 173.218 15.2819 168.191 14.8487C165.73 14.6363 161.757 14.4665 161.349 14.56C160.755 14.6872 160.246 15.1032 160.076 15.5955C159.982 15.8755 159.974 16.4021 160.059 16.6399C160.186 16.9796 160.449 17.2683 160.84 17.4974C162.555 18.5075 164.38 20.3922 165.755 22.5739C167.945 26.0374 170.696 28.7878 173.743 30.5796C174.261 30.885 175.068 31.2926 175.509 31.4708L175.798 31.5897L175.263 32.1755C172.071 35.6645 170.314 39.6629 169.753 44.6807C169.702 45.1813 169.6 46.2174 169.541 46.9813C169.473 47.8304 169.379 48.6198 169.303 49.0187C168.98 50.5976 169.108 51.4892 169.702 51.7863C170.152 52.0154 170.551 51.9052 171.527 51.2602C172.418 50.6827 172.996 50.3435 174.371 49.6304C176.323 48.5948 178.208 47.7373 179.931 47.0919C181.595 46.4635 183.089 45.6403 184.261 44.6978C185.212 43.9338 186.528 42.5586 187.385 41.4295L187.733 40.9709L187.818 41.1662C189.049 43.8741 190.186 45.657 191.876 47.5162C193.794 49.6388 196.426 51.4721 199.261 52.6862C200.331 53.1447 202.47 53.9004 202.793 53.9425C203.353 54.0106 203.82 53.7898 204.058 53.3396C204.313 52.8644 204.287 52.6182 203.761 50.6229C202.734 46.7688 202.318 44.4682 202.386 43.0504C202.445 41.8195 202.275 39.9603 201.97 38.4999C201.698 37.2182 201.163 35.6135 200.612 34.4418C200.459 34.1105 200.332 33.8222 200.332 33.8051C200.332 33.7796 200.484 33.7542 200.688 33.7542C201.699 33.7542 205.095 33.3465 206.597 33.0411C208.949 32.5659 211.852 30.6558 214.951 27.5402C216.929 25.5453 218.202 23.8897 218.805 22.5145C218.975 22.1323 219 22.0222 219 21.6742C219 21.2244 218.924 21.063 218.601 20.876C218.38 20.7488 217.828 20.7488 217.353 20.8844C216.793 21.0458 215.545 21.0287 214.611 20.8335C213.66 20.6382 212.328 20.256 210.112 19.5517C207.641 18.7623 207.106 18.6605 205.196 18.6605C203.218 18.6605 200.689 18.983 198.354 19.5096C198.057 19.5776 197.819 19.6285 197.819 19.6285C197.819 19.6202 197.887 19.4161 197.972 19.1787C198.405 17.9479 198.575 16.8355 198.532 15.6301C198.481 14.3649 198.235 13.4654 197.641 12.3956C197.072 11.3683 196.987 11.2073 196.673 10.5193C195.476 7.89601 194.576 4.90778 194.296 2.53077C194.118 1.04491 193.838 0.391572 193.261 0.10287C192.98 -0.0156095 192.539 -0.0415199 192.174 0.0769532ZM193.023 0.968613C193.082 1.03663 193.184 1.22312 193.244 1.3846C193.345 1.66456 193.396 1.9024 193.592 3.28643C193.838 5.02673 194.551 7.5482 195.391 9.62809C195.68 10.3583 196.512 12.0732 196.979 12.9134C197.31 13.4992 197.539 14.1614 197.666 14.849C197.785 15.494 197.743 16.878 197.582 17.6082C197.437 18.2958 197.208 19.0089 196.928 19.6456C196.673 20.223 196.648 20.4012 196.801 20.5622C196.945 20.7066 197.089 20.6895 197.964 20.4859C200.994 19.7557 204.152 19.3823 206.164 19.5183C207.336 19.5947 207.837 19.7053 209.781 20.3249C212.871 21.3183 214.043 21.6237 215.291 21.7935C216.08 21.8953 216.946 21.8699 217.574 21.7088C218.203 21.5561 218.228 21.5645 218.194 21.7935C218.126 22.2012 217.473 23.3895 216.87 24.1705C215.961 25.3676 213.754 27.6766 212.438 28.7885C210.469 30.4609 208.762 31.5223 207.183 32.0485C206.148 32.3965 202.548 32.8721 200.324 32.9652C198.991 33.0161 198.974 33.0499 199.585 34.2469C200.375 35.7837 200.935 37.4134 201.283 39.23C201.496 40.3591 201.555 41.055 201.572 42.7278C201.589 44.035 201.615 44.4936 201.699 45.1048C201.912 46.5734 202.285 48.2541 203.032 51.1322C203.456 52.762 203.473 52.9151 203.227 53.0762C203.04 53.2034 202.786 53.1525 201.792 52.7874C199.509 51.9471 198.032 51.2595 196.673 50.4275C194.44 49.044 192.462 47.2014 190.917 45.0451C190.017 43.7887 189.024 41.9722 188.447 40.5372C188.184 39.8579 188.141 39.7987 187.963 39.7307C187.725 39.646 187.564 39.7816 186.995 40.5543C185.374 42.7278 183.735 44.2639 181.893 45.3C181.29 45.6396 180.561 45.9622 179.228 46.4717C176.536 47.5073 172.64 49.4771 170.823 50.7246C170.339 51.0559 170.102 51.1322 169.999 50.9879C169.889 50.8351 169.915 50.105 170.059 49.3664C170.203 48.6024 170.262 48.0847 170.381 46.5562C170.661 42.8211 171.289 40.2063 172.52 37.6677C173.505 35.6387 174.617 34.0427 176.205 32.4043C176.604 31.9883 176.935 31.6148 176.935 31.5552C176.952 31.2072 176.876 31.1308 176.332 30.9356C175.627 30.6811 174.116 29.9 173.301 29.3567C171.332 28.0407 169.243 26.0375 167.681 23.966C167.189 23.3121 167.07 23.134 166.221 21.8351C164.812 19.6959 163.343 18.1675 161.552 16.9963C161.23 16.784 160.924 16.5549 160.882 16.4785C160.763 16.3087 160.771 15.9862 160.89 15.7738C160.949 15.672 161.102 15.5448 161.247 15.4684L161.501 15.3412L163.233 15.4092C165.873 15.5026 167.97 15.647 170.058 15.8932C176.137 16.5808 180.713 17.9902 183.047 19.8833C183.199 20.0106 183.369 20.1212 183.412 20.1212C183.87 20.1549 183.972 19.9597 183.853 19.3317C183.734 18.7121 183.734 17.0565 183.861 16.2333C184.125 14.4249 184.617 12.7953 185.338 11.3858C185.5 11.0633 185.899 10.4183 186.221 9.94255C186.96 8.83894 187.461 7.99859 188.666 5.74885C190.042 3.20199 190.551 2.37003 191.128 1.75871C191.587 1.26636 192.461 0.774023 192.775 0.842031C192.853 0.824039 192.964 0.900598 193.023 0.968613Z" fill="black"/>
<path d="M193.023 0.968613C193.082 1.03663 193.184 1.22312 193.244 1.3846C193.345 1.66456 193.396 1.9024 193.592 3.28643C193.838 5.02673 194.551 7.5482 195.391 9.62809C195.68 10.3583 196.512 12.0732 196.979 12.9134C197.31 13.4992 197.539 14.1614 197.666 14.849C197.785 15.494 197.743 16.878 197.582 17.6082C197.437 18.2958 197.208 19.0089 196.928 19.6456C196.673 20.223 196.648 20.4012 196.801 20.5622C196.945 20.7066 197.089 20.6895 197.964 20.4859C200.994 19.7557 204.152 19.3823 206.164 19.5183C207.336 19.5947 207.837 19.7053 209.781 20.3249C212.871 21.3183 214.043 21.6237 215.291 21.7935C216.08 21.8953 216.946 21.8699 217.574 21.7088C218.203 21.5561 218.228 21.5645 218.194 21.7935C218.126 22.2012 217.473 23.3895 216.87 24.1705C215.961 25.3676 213.754 27.6766 212.438 28.7885C210.469 30.4609 208.762 31.5223 207.183 32.0485C206.148 32.3965 202.548 32.8721 200.324 32.9652C198.991 33.0161 198.974 33.0499 199.585 34.2469C200.375 35.7837 200.935 37.4134 201.283 39.23C201.496 40.3591 201.555 41.055 201.572 42.7278C201.589 44.035 201.615 44.4936 201.699 45.1048C201.912 46.5734 202.285 48.2541 203.032 51.1322C203.456 52.762 203.473 52.9151 203.227 53.0762C203.04 53.2034 202.786 53.1525 201.792 52.7874C199.509 51.9471 198.032 51.2595 196.673 50.4275C194.44 49.044 192.462 47.2014 190.917 45.0451C190.017 43.7887 189.024 41.9722 188.447 40.5372C188.184 39.8579 188.141 39.7987 187.963 39.7307C187.725 39.646 187.564 39.7816 186.995 40.5543C185.374 42.7278 183.735 44.2639 181.893 45.3C181.29 45.6396 180.561 45.9622 179.228 46.4717C176.536 47.5073 172.64 49.4771 170.823 50.7246C170.339 51.0559 170.102 51.1322 169.999 50.9879C169.889 50.8351 169.915 50.105 170.059 49.3664C170.203 48.6024 170.262 48.0847 170.381 46.5562C170.661 42.8211 171.289 40.2063 172.52 37.6677C173.505 35.6387 174.617 34.0427 176.205 32.4043C176.604 31.9883 176.935 31.6148 176.935 31.5552C176.952 31.2072 176.876 31.1308 176.332 30.9356C175.627 30.6811 174.116 29.9 173.301 29.3567C171.332 28.0407 169.243 26.0375 167.681 23.966C167.189 23.3121 167.07 23.134 166.221 21.8351C164.812 19.6959 163.343 18.1675 161.552 16.9963C161.23 16.784 160.924 16.5549 160.882 16.4785C160.763 16.3087 160.771 15.9862 160.89 15.7738C160.949 15.672 161.102 15.5448 161.247 15.4684L161.501 15.3412L163.233 15.4092C165.873 15.5026 167.97 15.647 170.058 15.8932C176.137 16.5808 180.713 17.9902 183.047 19.8833C183.199 20.0106 183.369 20.1212 183.412 20.1212C183.87 20.1549 183.972 19.9597 183.853 19.3317C183.734 18.7121 183.734 17.0565 183.861 16.2333C184.125 14.4249 184.617 12.7953 185.338 11.3858C185.5 11.0633 185.899 10.4183 186.221 9.94255C186.96 8.83894 187.461 7.99859 188.666 5.74885C190.042 3.20199 190.551 2.37003 191.128 1.75871C191.587 1.26636 192.461 0.774023 192.775 0.842031C192.853 0.824039 192.964 0.900598 193.023 0.968613Z" fill="#F0C5AC"/>
<path d="M192.014 1.57102C191.861 1.63025 191.793 1.77462 191.462 2.80187C190.876 4.59306 190.774 5.1535 190.774 6.69013C190.766 7.94648 190.808 8.31157 191.105 9.72093C191.487 11.5205 191.598 12.811 191.598 15.2815C191.589 17.3615 191.547 18.0662 191.309 19.5344C191.029 21.2238 190.46 23.0831 189.908 24.0594C189.696 24.4328 189.679 24.6369 189.849 24.815C189.993 24.9594 190.273 24.951 190.409 24.7979C190.562 24.6364 190.995 23.7369 191.224 23.1423C192.107 20.7824 192.523 17.845 192.438 14.5259C192.396 12.5393 192.251 11.2488 191.903 9.5428C191.649 8.30318 191.572 7.59884 191.572 6.67342C191.572 5.4083 191.734 4.55972 192.302 2.87031C192.634 1.87684 192.642 1.77505 192.396 1.60519C192.268 1.50339 192.183 1.50344 192.014 1.57102Z" fill="black"/>
<path d="M162.351 15.9353C162.292 15.9691 162.207 16.0626 162.173 16.1477C162.122 16.2749 162.122 16.3346 162.19 16.4702C162.267 16.6317 162.326 16.6655 163.056 16.9117C164.627 17.4466 168.354 18.9745 171.18 20.2562C177.759 23.219 183.287 26.2666 186.011 28.44C186.987 29.2211 187.046 29.2466 187.31 29.0342C187.411 28.9495 187.446 28.8815 187.446 28.7288C187.446 28.5506 187.412 28.5081 187.149 28.2702C185.281 26.666 181.274 24.238 176.74 21.9711C172.734 19.9675 167.071 17.4888 163.769 16.2916C162.75 15.9015 162.53 15.8506 162.351 15.9353L162.351 15.9353Z" fill="black"/>
<path d="M216.038 22.7181C213.694 23.949 208.338 25.4093 201.682 26.6231C198.422 27.2172 194.891 27.735 193.592 27.8031C192.828 27.8456 192.692 27.8711 192.565 27.99C192.42 28.1344 192.437 28.406 192.598 28.5587C192.726 28.6776 192.743 28.6776 193.405 28.6434C194.517 28.5841 197.37 28.2019 199.933 27.7688C207.438 26.4871 213.558 24.8995 216.386 23.49C217.209 23.074 217.37 22.8704 217.107 22.5307C216.938 22.3276 216.709 22.3614 216.038 22.7181L216.038 22.7181Z" fill="black"/>
<path d="M187.021 31.8352C186.971 31.8861 186.784 32.1665 186.605 32.4548C184.959 35.0526 180.638 40.3328 177.861 43.1512C176.766 44.2548 175.9 45.0188 174.245 46.3348C172.258 47.9137 172.055 48.0923 171.553 48.593C170.9 49.2468 170.764 49.5777 171.069 49.79C171.324 49.9682 171.443 49.9089 172.088 49.2551C172.496 48.8391 173.294 48.1598 174.499 47.2006C175.493 46.4112 176.605 45.4941 176.978 45.1632C179.083 43.2956 182.844 39.0002 185.654 35.2478C186.545 34.0508 187.556 32.5737 187.658 32.3105C187.717 32.1407 187.691 31.988 187.564 31.8436C187.463 31.7163 187.132 31.7163 187.021 31.8352Z" fill="black"/>
<path d="M191.267 32.2003C191.097 32.2596 191.003 32.3956 191.003 32.5737C191.003 32.7098 191.131 32.9726 191.496 33.601C193.525 37.0816 194.687 39.6114 195.545 42.4044C195.885 43.4996 196.275 44.4418 197.031 45.9784C198.27 48.5082 199.629 50.6307 200.681 51.7426C201.369 52.4556 201.81 52.6509 202.056 52.3455C202.252 52.091 202.184 51.8786 201.836 51.6579C200.621 50.9022 197.99 46.5813 196.699 43.2534C196.572 42.9221 196.351 42.2687 196.207 41.7847C195.443 39.2717 194.085 36.3514 192.107 33.0152C191.648 32.2086 191.529 32.0985 191.267 32.2003Z" fill="black"/>
<defs>
<linearGradient id="paint0_linear_1_32" x1="111.5" y1="28" x2="111.5" y2="104" gradientUnits="userSpaceOnUse">
<stop stop-color="#72E6FF"/>
<stop offset="1" stop-color="#3159E8"/>
</linearGradient>
</defs>
</svg>
