<svg width="222" height="127" viewBox="0 0 222 127" fill="none" xmlns="http://www.w3.org/2000/svg">
<rect x="11" y="44.7243" width="171" height="76" rx="15" fill="url(#paint0_linear_1_33)"/>
<rect x="21" y="34.7243" width="171" height="76" rx="15" fill="#D9FF88" fill-opacity="0.5"/>
<path d="M147.827 15.8041C145.943 19.7053 145.943 28.4431 147.733 29.9588C147.779 30.007 147.829 30.0499 147.884 30.0866C148.791 30.559 153.697 32.9557 156.255 34.2031C155.499 34.6171 155.063 34.9057 155.04 34.9199C154.851 35.0509 154.722 35.2515 154.681 35.4772L152.444 33.584C152.365 33.5174 144.632 27.4123 134.127 33.9434C129.062 37.0672 126.081 40.8676 125.263 45.252C124.405 49.8295 125.958 54.7371 129.869 59.8265C130.059 60.0774 130.373 60.2026 130.686 60.1525C130.998 60.1026 131.259 59.8854 131.366 59.587C131.422 59.521 133.796 52.8728 135.329 49.0139C135.556 50.0206 135.601 51.0608 135.464 52.0861C135.375 52.4487 135.529 52.8262 135.845 53.0218C136.161 53.2172 136.568 53.1862 136.853 52.9451C138.474 51.4355 139.754 49.5976 140.607 47.555C141.46 45.5126 141.866 43.3134 141.798 41.106C143.511 41.4231 146.645 41.6845 149.257 39.8618L155.501 45.1473C155.569 45.1988 155.645 45.2397 155.725 45.2688C156.6 48.111 157.963 50.7756 159.753 53.1443C159.371 53.1228 159.001 53.2842 158.755 53.5794C158.497 53.8837 158.42 54.3013 158.553 54.675C158.686 55.0487 159.009 55.3217 159.399 55.3912C159.79 55.4606 160.189 55.3159 160.447 55.0117C160.604 54.826 160.703 54.5981 160.731 54.3569C161.825 55.636 163.032 56.8136 164.338 57.8755L164.804 58.2697C165.95 59.2414 167.173 60.1181 168.462 60.8904C168.229 60.958 168.021 61.0931 167.863 61.2788C167.606 61.5831 167.529 62.0007 167.662 62.3743C167.795 62.7482 168.117 63.0211 168.508 63.0905C168.899 63.16 169.298 63.0155 169.555 62.7112C169.807 62.4204 169.905 62.0275 169.819 61.6542C172.451 63.0256 175.304 63.9261 178.251 64.3153C178.294 64.3922 178.35 64.4617 178.414 64.5215L184.671 69.818C183.337 72.7234 184.068 75.7564 184.675 77.3805C182.489 77.6788 180.389 78.443 178.518 79.6213C176.647 80.7995 175.047 82.3644 173.827 84.2103C173.636 84.5321 173.673 84.9387 173.918 85.2183C174.163 85.4976 174.561 85.5868 174.903 85.439C175.892 85.1345 176.925 85.0079 177.956 85.0651C174.396 87.2084 168.257 90.6697 168.175 90.7135C167.898 90.8681 167.728 91.1617 167.73 91.478C167.732 91.7945 167.907 92.0831 168.186 92.2299C173.847 95.2654 178.909 96.0147 183.31 94.38C187.499 92.8493 190.768 89.281 193.007 83.7764C197.66 72.3482 190.397 65.7007 190.292 65.6119L188.035 63.702C188.251 63.6242 188.427 63.4635 188.526 63.2561C188.526 63.2561 188.749 62.7534 189.032 61.9396C190.675 64.2816 193.848 68.7251 194.475 69.5275C194.52 69.5761 194.57 69.6189 194.626 69.6551C196.456 71.2041 205.055 69.7574 208.604 67.254C208.886 67.0312 209.002 66.6582 208.896 66.3169C208.79 65.9753 208.484 65.7364 208.126 65.7165C203.682 65.5132 198.449 64.9925 197.554 64.5071C195.329 61.5856 192.91 58.8182 190.313 56.2241L190.342 55.9768C192.548 58.1052 197.127 62.1395 200.782 62.9677C200.982 63.0142 201.193 62.9872 201.376 62.8919C201.676 62.7376 208.697 58.9918 211.945 53.9447C212.154 53.6241 212.128 53.2055 211.881 52.9159L211.796 52.8438C211.546 52.631 211.195 52.5806 210.893 52.7139L201.131 56.9841L194.43 53.1026C197.56 53.9703 200.833 54.2154 204.065 53.8242C204.107 53.8135 204.149 53.7996 204.19 53.7825C204.224 53.7756 204.258 53.7667 204.291 53.7554C204.338 53.7116 204.379 53.663 204.414 53.6101C204.447 53.5776 204.477 53.5422 204.504 53.5046C204.722 53.2472 209.549 46.9192 210.301 42.3081C210.349 42.0086 210.236 41.7072 210.005 41.5137L209.861 41.3915C209.534 41.2192 209.132 41.276 208.863 41.5329L202.115 48.0145L189.584 46.9375L189.352 46.1744C190.991 46.259 195.364 46.3341 198.643 44.9737C198.733 44.9318 198.816 44.8751 198.887 44.8056C198.963 44.7421 199.027 44.6662 199.077 44.5813L199.111 44.5415C199.129 44.4947 199.144 44.4464 199.154 44.3971L200.756 34.0465C200.8 33.7515 200.688 33.4558 200.461 33.2643C200.403 33.1968 200.334 33.1386 200.258 33.0922C199.899 32.9458 199.484 33.0593 199.247 33.3693L194.413 40.0099L187.108 41.3388C185.983 39.6416 184.625 38.1111 183.075 36.7921L182.105 35.9703C180.548 34.6596 178.815 33.5737 176.955 32.7442L177.04 25.3026L182.74 19.4867C183.007 19.2013 183.05 18.7737 182.846 18.4433C182.788 18.3757 182.719 18.3175 182.643 18.2713C182.417 18.0791 182.107 18.0179 181.823 18.1097L171.997 21.2719C171.95 21.2901 171.905 21.3125 171.862 21.3385L171.828 21.3781C171.753 21.4418 171.688 21.5176 171.638 21.6024C171.582 21.6802 171.539 21.7667 171.512 21.8582C170.723 25.3039 171.518 29.604 171.861 31.2202L171.07 31.1173L167.94 18.9361L173.225 11.2164C173.434 10.9087 173.424 10.5035 173.2 10.2095L173.055 10.0873C172.826 9.89084 172.51 9.8301 172.223 9.92664C167.793 11.4231 162.363 17.2525 162.137 17.4923C162.105 17.5252 162.075 17.5603 162.048 17.5979C162.001 17.6415 161.96 17.6903 161.925 17.7432C161.919 17.7779 161.916 17.8128 161.915 17.848C161.905 17.8909 161.898 17.9345 161.895 17.9782C162.042 21.2304 162.824 24.4179 164.196 27.3614L159.262 21.3937L161.862 11.0608C161.944 10.7408 161.836 10.4031 161.585 10.1914L161.48 10.1024C161.154 9.90755 160.737 9.95094 160.455 10.2093C156.005 14.2958 153.459 21.8523 153.336 22.1566C153.272 22.3528 153.281 22.5646 153.359 22.7544C154.78 26.2234 159.54 30.0828 161.978 31.8974L161.739 31.9669C158.754 29.8355 155.627 27.908 152.381 26.198C151.717 25.3987 150.383 20.3252 149.45 15.9882C149.371 15.6391 149.085 15.3764 148.731 15.3281C148.376 15.2799 148.028 15.4562 147.855 15.7711L147.827 15.8041ZM204.857 67.221C202.099 68.2016 199.182 68.6447 196.265 68.5264L197.287 66.1619C199.77 66.7511 202.305 67.1056 204.857 67.221ZM148.716 38.077C145.698 40.6445 141.151 39.1528 141.081 39.1163C140.802 39.0215 140.492 39.0769 140.261 39.2632C140.031 39.4494 139.911 39.7406 139.943 40.0344C140.345 43.5669 139.352 47.1264 137.176 49.9535C137.015 48.5941 136.744 47.2503 136.366 45.9359C136.267 45.5947 135.968 45.3507 135.614 45.3219C135.26 45.2928 134.923 45.4848 134.765 45.8052C133.976 47.4031 131.426 54.3112 130.27 57.4461C127.365 53.2304 126.232 49.2228 126.91 45.5357C127.657 41.6348 130.346 38.245 134.985 35.3721C143.204 30.3174 149.309 33.559 150.899 34.633C150.476 35.9469 149.724 37.133 148.716 38.077ZM150.537 38.6783C151.295 37.8228 151.9 36.843 152.324 35.7825L154.561 37.6758C154.559 39.2837 154.71 40.887 155.01 42.4647L150.537 38.6783ZM189.515 67.3231C190.86 68.7671 195.015 74.2454 191.4 83.1302C189.359 88.2017 186.44 91.397 182.709 92.7719C179.168 94.0692 175.035 93.6188 170.408 91.4242C173.305 89.7971 179.685 86.1436 181.14 85.0634C181.43 84.8555 181.564 84.4914 181.477 84.1468C181.39 83.8021 181.1 83.5477 180.747 83.5065C179.388 83.35 178.018 83.3048 176.651 83.3709C179.08 80.7575 182.427 79.1904 185.977 79.0038C186.287 79.0035 186.574 78.8359 186.729 78.5656C186.883 78.2951 186.881 77.9635 186.723 77.6973C186.69 77.6694 184.475 73.4371 186.488 69.9957C187.252 68.8606 188.295 67.9399 189.515 67.3231ZM188.153 66.113C187.177 66.7064 186.311 67.4649 185.592 68.3536L181.093 64.5449C182.698 64.5799 184.305 64.4638 185.89 64.1977L188.153 66.113ZM195.917 65.0811L194.977 67.255C193.423 65.101 190.484 60.9923 189.67 59.8387C189.797 59.3567 189.914 58.8325 190.029 58.2719C192.113 60.4335 194.078 62.7064 195.917 65.0811ZM208.299 55.6405C206.075 57.776 203.589 59.6212 200.904 61.1318L201.78 58.4739L208.299 55.6405ZM200.038 58.2573L199.263 60.5025C195.605 58.7202 191.435 54.5891 190.469 53.6019C190.478 53.3076 190.481 53.0076 190.477 52.7018L200.038 58.2573ZM207.693 45.0524C206.696 47.2215 205.504 49.2968 204.133 51.2525L203.275 49.393L207.693 45.0524ZM201.402 49.5978L202.615 52.1545C197.756 52.5744 191.905 50.5224 190.31 49.92C190.257 49.4902 190.186 49.0558 190.108 48.6157L201.402 49.5978ZM197.788 42.3227L196.034 40.6449L198.536 37.2101L197.788 42.3227ZM194.612 41.6735L196.77 43.7387C194.206 44.3266 191.571 44.5255 188.952 44.3285C188.893 44.3298 188.835 44.3367 188.777 44.3498C188.559 43.8486 188.312 43.3558 188.047 42.8708L194.612 41.6735ZM179.07 20.72L176.095 23.755L174.151 22.3015L179.07 20.72ZM172.91 23.5406L175.304 25.3286L175.184 32.0268C174.65 31.8465 174.123 31.6841 173.605 31.5514C173.608 31.4923 173.605 31.4328 173.596 31.3744C172.985 28.8234 172.761 26.1923 172.931 23.5693L172.91 23.5406ZM169.818 12.9899L169.766 13.0655L166.302 18.1277L164.326 17.5885C166.001 15.9212 167.822 14.4074 169.766 13.0655C169.792 13.0477 169.818 13.0298 169.844 13.012L169.818 12.9899ZM163.638 19.1594L166.36 19.9338L169.215 30.9519C168.774 30.941 168.333 30.9424 167.895 30.9679C167.049 29.4809 164.109 24.0566 163.665 19.1815L163.638 19.1594ZM155.08 22.3404C156.126 19.4418 157.535 16.686 159.275 14.1397L157.54 21.0572L155.08 22.3404ZM155.945 23.832L158.032 22.6972L165.096 31.2278L164.21 31.3841C163.082 30.588 158.321 27.1692 155.965 23.8607L155.945 23.832ZM158.615 34.9087C159.583 34.4645 160.578 34.0802 161.592 33.7581C161.745 33.7518 161.893 33.7052 162.022 33.6229C162.619 33.4367 163.247 33.2661 163.902 33.1179C164.066 33.1322 164.231 33.0988 164.378 33.0218C165.082 32.8813 165.8 32.7642 166.559 32.6926C166.723 32.7289 166.894 32.7161 167.051 32.6561L167.173 32.6456C167.338 32.6849 167.512 32.674 167.672 32.6146C168.468 32.5783 169.265 32.5908 170.06 32.653C170.198 32.7016 170.346 32.7141 170.491 32.6895C172.277 32.8707 174.025 33.3156 175.678 34.0093L175.789 34.1036C177.854 34.9956 179.755 36.2226 181.418 37.7352C183.206 39.1353 184.748 40.8235 185.981 42.7314C186.968 44.287 187.714 45.9843 188.193 47.7657C188.2 47.8587 188.222 47.9499 188.258 48.0356C188.461 48.8374 188.614 49.652 188.715 50.4741C188.693 50.6216 188.709 50.7718 188.762 50.9104L188.784 51.1106C188.761 51.2557 188.775 51.404 188.825 51.5415C188.875 52.3041 188.885 53.0693 188.855 53.8335C188.82 53.9638 188.816 54.1003 188.844 54.2322C188.807 54.9267 188.738 55.5935 188.654 56.225C188.601 56.3567 188.581 56.4991 188.596 56.6398C188.435 57.6938 188.21 58.7368 187.921 59.7636C187.897 59.8261 187.879 59.8914 187.87 59.9577C187.653 60.7168 187.396 61.464 187.1 62.1965C183.299 63.0536 179.353 62.9907 175.593 62.0131C171.832 61.0353 168.365 59.1712 165.48 56.5758C162.45 54.1456 160.045 51.0259 158.462 47.473C156.879 43.9206 156.164 40.0371 156.377 36.1423C157.049 35.7331 157.742 35.3585 158.452 35.0207C158.516 35.0002 158.577 34.9722 158.635 34.9375L158.615 34.9087ZM152.06 27.9555C154.706 29.3765 157.272 30.9399 159.748 32.6389C159.214 32.8442 158.717 33.0461 158.262 33.2508C156.996 32.6322 152.446 30.4123 150.071 29.2411L152.06 27.9555ZM150.771 26.7392L150.745 26.7561L148.601 28.1321C148.015 25.2798 147.979 22.3376 148.496 19.4645C149.016 21.9616 149.769 24.4028 150.745 26.7561C150.746 26.7592 150.747 26.7623 150.748 26.7654L150.771 26.7392Z" fill="black"/>
<path d="M150.537 38.6783C151.295 37.8228 151.9 36.843 152.324 35.7825L154.561 37.6758C154.559 39.2837 154.71 40.887 155.01 42.4647L150.537 38.6783Z" fill="#880000"/>
<path d="M148.716 38.077C145.698 40.6445 141.151 39.1528 141.081 39.1163C140.802 39.0215 140.492 39.0769 140.261 39.2632C140.031 39.4494 139.911 39.7406 139.943 40.0344C140.345 43.5669 139.352 47.1264 137.176 49.9535C137.015 48.5941 136.744 47.2503 136.366 45.9359C136.267 45.5947 135.968 45.3507 135.614 45.3219C135.26 45.2928 134.923 45.4848 134.765 45.8052C133.976 47.4031 131.426 54.3112 130.27 57.4461C127.365 53.2304 126.232 49.2228 126.91 45.5357C127.657 41.6348 130.346 38.245 134.985 35.3721C143.204 30.3174 149.309 33.559 150.899 34.633C150.476 35.9469 149.724 37.133 148.716 38.077Z" fill="#880000"/>
<path d="M152.06 27.9555C154.706 29.3765 157.272 30.9399 159.748 32.6389C159.214 32.8442 158.717 33.0461 158.262 33.2508C156.996 32.6322 152.446 30.4123 150.071 29.2411L152.06 27.9555Z" fill="#880000"/>
<path d="M148.601 28.1321L150.745 26.7561C149.769 24.4028 149.016 21.9616 148.496 19.4645C147.979 22.3376 148.015 25.2798 148.601 28.1321Z" fill="#880000"/>
<path d="M155.945 23.832L158.032 22.6972L165.096 31.2278L164.21 31.3841C163.082 30.588 158.321 27.1692 155.965 23.8607L155.945 23.832Z" fill="#880000"/>
<path d="M155.08 22.3404C156.126 19.4418 157.535 16.686 159.275 14.1397L157.54 21.0572L155.08 22.3404Z" fill="#880000"/>
<path d="M163.638 19.1594L166.36 19.9338L169.215 30.9519C168.774 30.941 168.333 30.9424 167.895 30.9679C167.049 29.4809 164.109 24.0566 163.665 19.1815L163.638 19.1594Z" fill="#880000"/>
<path d="M166.302 18.1277L169.766 13.0655C167.822 14.4074 166.001 15.9212 164.326 17.5885L166.302 18.1277Z" fill="#880000"/>
<path d="M172.91 23.5406L175.304 25.3286L175.184 32.0268C174.65 31.8465 174.123 31.6841 173.605 31.5514C173.608 31.4923 173.605 31.4328 173.596 31.3744C172.985 28.8234 172.761 26.1923 172.931 23.5693L172.91 23.5406Z" fill="#880000"/>
<path d="M179.07 20.72L176.095 23.755L174.151 22.3015L179.07 20.72Z" fill="#880000"/>
<path d="M197.788 42.3227L196.034 40.6449L198.536 37.2101L197.788 42.3227Z" fill="#880000"/>
<path d="M194.612 41.6735L196.77 43.7387C194.206 44.3266 191.571 44.5255 188.952 44.3285C188.893 44.3298 188.835 44.3367 188.777 44.3498C188.559 43.8486 188.312 43.3558 188.047 42.8708L194.612 41.6735Z" fill="#880000"/>
<path d="M201.402 49.5978L202.615 52.1545C197.756 52.5744 191.905 50.5224 190.31 49.92C190.257 49.4902 190.186 49.0558 190.108 48.6157L201.402 49.5978Z" fill="#880000"/>
<path d="M207.693 45.0524C206.696 47.2215 205.504 49.2968 204.133 51.2525L203.275 49.393L207.693 45.0524Z" fill="#880000"/>
<path d="M208.299 55.6405C206.075 57.776 203.589 59.6212 200.904 61.1318L201.78 58.4739L208.299 55.6405Z" fill="#880000"/>
<path d="M200.038 58.2573L199.263 60.5025C195.605 58.7202 191.435 54.5891 190.469 53.6019C190.478 53.3076 190.481 53.0076 190.477 52.7018L200.038 58.2573Z" fill="#880000"/>
<path d="M195.917 65.0811L194.977 67.255C193.423 65.101 190.484 60.9923 189.67 59.8387C189.797 59.3567 189.914 58.8325 190.029 58.2719C192.113 60.4335 194.078 62.7064 195.917 65.0811Z" fill="#880000"/>
<path d="M204.857 67.221C202.099 68.2016 199.182 68.6447 196.265 68.5264L197.287 66.1619C199.77 66.7511 202.305 67.1056 204.857 67.221Z" fill="#880000"/>
<path d="M189.515 67.3231C190.86 68.7671 195.015 74.2454 191.4 83.1302C189.359 88.2017 186.44 91.397 182.709 92.7719C179.168 94.0692 175.035 93.6188 170.408 91.4242C173.305 89.7971 179.685 86.1436 181.14 85.0634C181.43 84.8555 181.564 84.4914 181.477 84.1468C181.39 83.8021 181.1 83.5477 180.747 83.5065C179.388 83.35 178.018 83.3048 176.651 83.3709C179.08 80.7575 182.427 79.1904 185.977 79.0038C186.287 79.0035 186.574 78.8359 186.729 78.5656C186.883 78.2951 186.881 77.9635 186.723 77.6973C186.69 77.6694 184.475 73.4371 186.488 69.9957C187.252 68.8606 188.295 67.9399 189.515 67.3231Z" fill="#880000"/>
<path d="M188.153 66.113C187.177 66.7064 186.311 67.4649 185.592 68.3536L181.093 64.5449C182.698 64.5799 184.305 64.4638 185.89 64.1977L188.153 66.113Z" fill="#880000"/>
<path d="M158.615 34.9087C159.583 34.4645 160.578 34.0802 161.592 33.7581C161.745 33.7518 161.893 33.7052 162.022 33.6229C162.619 33.4367 163.247 33.2661 163.902 33.1179C164.066 33.1322 164.231 33.0988 164.378 33.0218C165.082 32.8813 165.8 32.7642 166.559 32.6926C166.723 32.7289 166.894 32.7161 167.051 32.6561L167.173 32.6456C167.338 32.6849 167.512 32.674 167.672 32.6146C168.468 32.5783 169.265 32.5908 170.06 32.653C170.198 32.7016 170.346 32.7141 170.491 32.6895C172.277 32.8707 174.025 33.3156 175.678 34.0093L175.789 34.1036C177.854 34.9956 179.755 36.2226 181.418 37.7352C183.206 39.1353 184.748 40.8235 185.981 42.7314C186.968 44.287 187.714 45.9843 188.193 47.7657C188.2 47.8587 188.222 47.9499 188.258 48.0356C188.461 48.8374 188.614 49.652 188.715 50.4741C188.693 50.6216 188.709 50.7718 188.762 50.9104L188.784 51.1106C188.761 51.2557 188.775 51.404 188.825 51.5415C188.875 52.3041 188.885 53.0693 188.855 53.8335C188.82 53.9638 188.816 54.1003 188.844 54.2322C188.807 54.9267 188.738 55.5935 188.654 56.225C188.601 56.3567 188.581 56.4991 188.596 56.6398C188.435 57.6938 188.21 58.7368 187.921 59.7636C187.897 59.8261 187.879 59.8914 187.87 59.9577C187.653 60.7168 187.396 61.464 187.1 62.1965C183.299 63.0536 179.353 62.9907 175.593 62.0131C171.832 61.0353 168.365 59.1712 165.48 56.5758C162.45 54.1456 160.045 51.0259 158.462 47.473C156.879 43.9206 156.164 40.0371 156.377 36.1423C157.049 35.7331 157.742 35.3585 158.452 35.0207C158.516 35.0002 158.577 34.9722 158.635 34.9375L158.615 34.9087Z" fill="#880000"/>
<path d="M80.152 83.7243V61.9062H84.0085V70.0667H84.1683C84.3672 69.6689 84.6477 69.2464 85.0099 68.7989C85.3722 68.3444 85.8622 67.9573 86.4801 67.6377C87.098 67.311 87.8864 67.1476 88.8452 67.1476C90.1094 67.1476 91.2493 67.4708 92.2649 68.1171C93.2876 68.7563 94.0973 69.7045 94.6939 70.9616C95.2976 72.2116 95.5994 73.7457 95.5994 75.5638C95.5994 77.3607 95.3047 78.8877 94.7152 80.1448C94.1257 81.4019 93.3232 82.3607 92.3075 83.0212C91.2919 83.6817 90.1413 84.012 88.8558 84.012C87.9183 84.012 87.1406 83.8557 86.5227 83.5432C85.9048 83.2307 85.4077 82.8543 85.0312 82.414C84.6619 81.9665 84.3743 81.5439 84.1683 81.1462H83.9446V83.7243H80.152ZM83.9339 75.5425C83.9339 76.6008 84.0831 77.5276 84.3814 78.3231C84.6868 79.1185 85.1236 79.74 85.6918 80.1874C86.267 80.6278 86.9631 80.8479 87.7798 80.8479C88.6321 80.8479 89.3459 80.6207 89.9212 80.1661C90.4964 79.7045 90.9297 79.0759 91.2209 78.2805C91.5192 77.4779 91.6683 76.5653 91.6683 75.5425C91.6683 74.5269 91.5227 73.6249 91.2315 72.8366C90.9403 72.0482 90.5071 71.4303 89.9318 70.9829C89.3565 70.5354 88.6392 70.3117 87.7798 70.3117C86.956 70.3117 86.2564 70.5283 85.6811 70.9616C85.1058 71.3948 84.669 72.002 84.3707 72.7833C84.0795 73.5645 83.9339 74.4843 83.9339 75.5425ZM103.587 84.0546C102.55 84.0546 101.616 83.8699 100.785 83.5006C99.9611 83.1242 99.3077 82.5702 98.8248 81.8387C98.3489 81.1072 98.111 80.2052 98.111 79.1327C98.111 78.2094 98.2814 77.4459 98.6223 76.8422C98.9632 76.2386 99.4284 75.7556 100.018 75.3934C100.607 75.0312 101.271 74.7577 102.01 74.5731C102.756 74.3813 103.526 74.2428 104.322 74.1576C105.281 74.0582 106.058 73.9694 106.655 73.8912C107.252 73.806 107.685 73.6782 107.955 73.5077C108.232 73.3302 108.37 73.0567 108.37 72.6874V72.6235C108.37 71.8209 108.132 71.1995 107.656 70.7591C107.181 70.3188 106.495 70.0986 105.6 70.0986C104.656 70.0986 103.906 70.3046 103.352 70.7165C102.806 71.1285 102.436 71.615 102.244 72.1761L98.6436 71.6647C98.9277 70.6704 99.3965 69.8394 100.05 69.1718C100.703 68.4971 101.502 67.9928 102.447 67.659C103.392 67.3181 104.436 67.1476 105.579 67.1476C106.367 67.1476 107.152 67.24 107.933 67.4246C108.715 67.6093 109.428 67.9147 110.075 68.3408C110.721 68.7599 111.24 69.3316 111.63 70.056C112.028 70.7805 112.227 71.686 112.227 72.7726V83.7243H108.519V81.4765H108.392C108.157 81.931 107.827 82.3572 107.401 82.7549C106.982 83.1455 106.453 83.4616 105.813 83.703C105.181 83.9374 104.439 84.0546 103.587 84.0546ZM104.588 81.2208C105.362 81.2208 106.034 81.0681 106.602 80.7627C107.17 80.4502 107.607 80.0383 107.912 79.5269C108.225 79.0155 108.381 78.458 108.381 77.8543V75.9261C108.26 76.0255 108.054 76.1178 107.763 76.203C107.479 76.2883 107.159 76.3628 106.804 76.4268C106.449 76.4907 106.097 76.5475 105.749 76.5972C105.401 76.6469 105.1 76.6895 104.844 76.7251C104.269 76.8032 103.754 76.931 103.299 77.1086C102.845 77.2861 102.486 77.5347 102.223 77.8543C101.96 78.1668 101.829 78.5716 101.829 79.0688C101.829 79.779 102.088 80.3153 102.607 80.6775C103.125 81.0397 103.786 81.2208 104.588 81.2208ZM122.177 84.012C120.892 84.012 119.741 83.6817 118.725 83.0212C117.71 82.3607 116.907 81.4019 116.318 80.1448C115.728 78.8877 115.433 77.3607 115.433 75.5638C115.433 73.7457 115.732 72.2116 116.328 70.9616C116.932 69.7045 117.745 68.7563 118.768 68.1171C119.791 67.4708 120.931 67.1476 122.188 67.1476C123.146 67.1476 123.935 67.311 124.553 67.6377C125.171 67.9573 125.661 68.3444 126.023 68.7989C126.385 69.2464 126.666 69.6689 126.865 70.0667H127.024V61.9062H130.892V83.7243H127.099V81.1462H126.865C126.666 81.5439 126.378 81.9665 126.002 82.414C125.625 82.8543 125.128 83.2307 124.51 83.5432C123.892 83.8557 123.115 84.012 122.177 84.012ZM123.253 80.8479C124.07 80.8479 124.766 80.6278 125.341 80.1874C125.916 79.74 126.353 79.1185 126.651 78.3231C126.95 77.5276 127.099 76.6008 127.099 75.5425C127.099 74.4843 126.95 73.5645 126.651 72.7833C126.36 72.002 125.927 71.3948 125.352 70.9616C124.784 70.5283 124.084 70.3117 123.253 70.3117C122.394 70.3117 121.676 70.5354 121.101 70.9829C120.526 71.4303 120.093 72.0482 119.801 72.8366C119.51 73.6249 119.365 74.5269 119.365 75.5425C119.365 76.5653 119.51 77.4779 119.801 78.2805C120.1 79.0759 120.536 79.7045 121.112 80.1661C121.694 80.6207 122.408 80.8479 123.253 80.8479Z" fill="white"/>
<path d="M48.2727 118.455C48.0281 118.618 47.8891 118.898 47.9076 119.191C47.9261 119.484 48.0996 119.745 48.3627 119.876C48.6257 120.006 48.9382 119.986 49.1828 119.824L51.9883 117.976C50.7773 124.251 42.8463 124.6 30.4812 124.6C18.5405 124.6 10.8628 124.258 9.61738 118.092L12.2656 119.851C12.5102 120.014 12.8225 120.034 13.0856 119.903C13.3486 119.773 13.5222 119.512 13.5407 119.219C13.5591 118.926 13.4199 118.645 13.1756 118.483L9.06986 115.745L9.01506 115.711L5.90145 113.658L11.9026 115.082H12.0465C12.2523 115.146 12.4751 115.126 12.6667 115.027C12.858 114.928 13.003 114.758 13.0701 114.553C13.1371 114.348 13.1211 114.125 13.0251 113.932L9.69943 107.267L15.3243 114.794C15.5003 115.029 15.7883 115.152 16.0794 115.117C16.3708 115.082 16.6212 114.894 16.7363 114.624C16.8517 114.354 16.8141 114.043 16.6381 113.809L12.4025 108.129C12.8828 107.528 13.404 106.961 13.9627 106.432L15.2081 110.798C15.268 111.007 15.4085 111.185 15.5992 111.291C15.7897 111.397 16.0146 111.422 16.2242 111.362C16.4339 111.303 16.6109 111.162 16.717 110.971C16.8228 110.781 16.8486 110.556 16.7887 110.346L15.1807 104.714L11.8345 92.9927L18.9648 107.281C19.0363 107.512 19.2062 107.699 19.429 107.794C19.6517 107.888 19.9048 107.879 20.1206 107.77C20.3362 107.661 20.4928 107.461 20.5485 107.226C20.604 106.991 20.5528 106.743 20.4086 106.548L18.6979 103.127C19.1154 102.915 19.5397 102.71 19.9707 102.525C20.4017 102.34 20.8396 102.169 21.2845 102.005L22.5299 110.716C22.5775 111.016 22.782 111.269 23.0662 111.378C23.3505 111.487 23.6714 111.436 23.908 111.244C24.1446 111.053 24.2609 110.749 24.2132 110.449L22.8446 100.773L22.2356 96.5096L26.3413 110.832C26.4012 111.041 26.542 111.219 26.7325 111.324C26.9232 111.43 27.1479 111.456 27.3575 111.396C27.5671 111.336 27.7444 111.196 27.8502 111.005C27.956 110.815 27.9819 110.59 27.9222 110.38L25.1986 100.903C25.6296 100.814 26.054 100.739 26.4919 100.67L26.2934 103.147C26.2765 103.364 26.3462 103.579 26.4872 103.744C26.6285 103.91 26.8294 104.012 27.0461 104.03H27.1147C27.3199 104.031 27.5181 103.955 27.6703 103.817C27.8222 103.678 27.9171 103.488 27.9358 103.284L28.9553 90.3441L30.057 101.895C30.0552 101.927 30.0552 101.959 30.057 101.991V102.059L30.0913 102.141V102.203L30.1461 102.278L30.1871 102.333L30.2965 102.442L30.3786 102.497H30.4265L30.5087 102.531H31.0562L31.1589 102.49H31.2068L31.2821 102.435L31.3369 102.394L31.4465 102.285L31.5626 102.237L31.6105 102.162V102.1C31.6118 102.073 31.6118 102.045 31.6105 102.018V101.95C31.612 101.92 31.612 101.89 31.6105 101.861L32.5068 87.1142L33.2664 99.6024C33.2517 99.6906 33.2517 99.7811 33.2664 99.8695L33.4717 103.257C33.484 103.466 33.5758 103.663 33.7283 103.807C33.8812 103.95 34.083 104.03 34.2928 104.03H34.3407C34.5585 104.018 34.7626 103.919 34.9078 103.756C35.0528 103.593 35.127 103.379 35.1138 103.161L34.9633 100.656C35.3876 100.718 35.8051 100.793 36.2156 100.875L33.4784 110.38C33.3978 110.662 33.474 110.966 33.678 111.177C33.8823 111.388 34.1837 111.474 34.4683 111.403C34.7532 111.332 34.9784 111.114 35.0592 110.832L39.165 96.5095L37.2832 110.448C37.2415 110.739 37.3582 111.03 37.5894 111.212C37.8207 111.393 38.131 111.438 38.4038 111.328C38.6764 111.219 38.87 110.972 38.9117 110.681L40.164 101.936C40.538 102.073 40.9075 102.216 41.2726 102.367C41.3806 102.458 41.51 102.519 41.6488 102.545H41.6967C42.0707 102.709 42.4358 102.882 42.7915 103.065L41.0603 106.548C40.9295 106.811 40.9489 107.123 41.1111 107.368C41.2733 107.613 41.5537 107.752 41.8466 107.734C42.1397 107.716 42.4008 107.543 42.5316 107.28L49.655 92.9992L44.7008 110.353C44.6202 110.635 44.6961 110.939 44.9004 111.15C45.1046 111.361 45.4058 111.447 45.6907 111.376C45.9756 111.304 46.2008 111.087 46.2814 110.804L47.5475 106.343C47.8965 106.671 48.2318 107.027 48.5396 107.356L48.6149 107.444C48.7928 107.645 48.9639 107.848 49.1281 108.053L44.8239 113.801C44.648 114.036 44.6105 114.347 44.7257 114.617C44.8408 114.887 45.0914 115.074 45.3826 115.109C45.674 115.144 45.9617 115.021 46.1377 114.787L51.7626 107.26L50.6335 109.525L48.4643 113.945C48.3109 114.248 48.3616 114.615 48.5918 114.865C48.8219 115.115 49.1829 115.195 49.4977 115.067H49.5387L55.5399 113.644L48.2727 118.455Z" fill="#4F2967"/>
<path fill-rule="evenodd" clip-rule="evenodd" d="M61.3221 101.888C61.1999 101.743 61.0306 101.643 60.8432 101.608C60.6561 101.574 60.4626 101.605 60.2957 101.697L54.9172 104.667L57.3191 99.8766C57.4174 99.6362 57.3962 99.3638 57.2621 99.1415C57.128 98.9192 56.8966 98.7735 56.6382 98.7486C56.3798 98.7234 56.1248 98.8221 55.9506 99.0145L50.264 106.555L57.319 92.4522C57.4816 92.2079 57.5012 91.8951 57.3709 91.6323C57.2403 91.3692 56.9795 91.1957 56.6866 91.1772C56.3934 91.1585 56.113 91.2977 55.9504 91.5423L49.7918 98.5083L53.6717 84.9184C53.7541 84.6516 53.6953 84.3611 53.5155 84.1474C53.3358 83.9338 53.0596 83.826 52.7827 83.8617C52.5058 83.8971 52.2657 84.0708 52.1456 84.323L46.3086 96.0243V81.0247C46.3068 80.7498 46.1676 80.4941 45.9375 80.3433C45.7077 80.1928 45.4176 80.1671 45.1648 80.2752C44.912 80.3832 44.73 80.6106 44.6801 80.8811L41.1696 100.568L40.3964 100.287L42.6068 84.8019C42.6437 84.5261 42.5384 84.2504 42.327 84.0693C42.1156 83.8884 41.8269 83.8267 41.5601 83.9055C41.2932 83.9844 41.0845 84.1931 41.0054 84.4597L38.8842 91.7816V77.3363C38.8802 77.0621 38.7396 76.808 38.5096 76.6589C38.2792 76.5099 37.9899 76.4856 37.7382 76.5941C37.4863 76.7028 37.3054 76.9298 37.2557 77.1995L34.58 93.2118L33.4099 73.5455C33.4099 73.2521 33.2533 72.981 32.9994 72.8344C32.7452 72.6876 32.4323 72.6876 32.1781 72.8344C31.9242 72.981 31.7676 73.2521 31.7676 73.5455L30.6728 91.3916L29.6669 80.9084C29.6466 80.7063 29.5521 80.5188 29.4018 80.3825C29.2514 80.2459 29.0556 80.17 28.8525 80.1693C28.6462 80.1704 28.448 80.2493 28.2969 80.39C28.1462 80.5306 28.0537 80.723 28.0383 80.9289L27.0803 93.0886L24.2064 77.1927C24.1563 76.9222 23.9745 76.6948 23.7217 76.5868C23.4689 76.4788 23.1789 76.5044 22.9487 76.6549C22.7189 76.8057 22.5794 77.0615 22.5776 77.3363V91.7747L20.4907 84.4461C20.4116 84.1792 20.2029 83.9705 19.936 83.8916C19.669 83.8128 19.3805 83.8745 19.1691 84.0556C18.9577 84.2367 18.8524 84.5124 18.8893 84.7882L21.0928 100.321L20.3196 100.602L16.8091 80.8468C16.7592 80.5766 16.5772 80.3492 16.3244 80.241C16.0718 80.1329 15.7816 80.1585 15.5517 80.3093C15.3218 80.4599 15.1824 80.7156 15.1806 80.9905V96.0448L9.34364 84.3435C9.22357 84.0913 8.98367 83.9176 8.70657 83.8822C8.42969 83.8465 8.1537 83.9543 7.97393 84.168C7.79415 84.3816 7.73514 84.672 7.81755 84.9389L11.6974 98.5288L5.53883 91.5628C5.37644 91.3182 5.09578 91.1792 4.80265 91.1977C4.50974 91.2162 4.2489 91.3897 4.11836 91.6528C3.98805 91.9159 4.00788 92.2284 4.17026 92.473L11.2252 106.556L5.56609 98.9874C5.3919 98.7949 5.13686 98.6962 4.87844 98.7214C4.62006 98.7464 4.38862 98.892 4.25455 99.1143C4.12045 99.3366 4.09929 99.6093 4.19752 99.8497L6.59942 104.64L1.20041 101.697C0.978108 101.581 0.71504 101.573 0.4863 101.676C0.257538 101.778 0.0878013 101.979 0.0256567 102.222C-0.0364878 102.464 0.0156328 102.722 0.167104 102.922L8.03639 112.461L1.81623 110.983C1.56341 110.922 1.29656 110.984 1.09699 111.15C0.897185 111.317 0.788258 111.569 0.803187 111.828C0.818334 112.088 0.955327 112.325 1.17295 112.468L7.81736 116.881C8.32367 126.187 18.6017 126.228 30.4741 126.228C42.2164 126.228 53.3018 126.228 53.7398 116.779L60.2336 112.461C60.4513 112.318 60.5885 112.081 60.6034 111.821C60.6183 111.561 60.5094 111.31 60.3098 111.143C60.1102 110.977 59.8434 110.915 59.5906 110.976L53.432 112.433L61.3218 102.922C61.4401 102.775 61.5047 102.593 61.5047 102.405C61.5047 102.217 61.4404 102.035 61.3221 101.888ZM51.6805 112.864C51.6395 112.81 51.6395 112.755 51.6395 112.7C51.5506 112.413 51.4479 112.119 51.3384 111.817L50.7089 113.097L51.6805 112.864ZM48.9503 105.467L53.056 97.3038L48.7108 102.162L48.0265 104.619C48.3457 104.893 48.6538 105.175 48.9503 105.467ZM44.6666 99.3156V90.2898L42.7165 101.232L43.517 101.615L44.6666 99.3156ZM36.7767 99.3088L37.2764 97.5433L37.2763 87.2517L35.3124 99.0488C35.8051 99.1241 36.2909 99.213 36.7767 99.3088ZM26.4715 98.9871L24.2202 86.4989L24.2201 97.5228L24.7264 99.2949C25.3014 99.1718 25.883 99.0693 26.4715 98.9871ZM18.7801 101.238L16.8231 90.2898L16.83 99.288L17.9931 101.622L18.7801 101.238ZM13.436 104.674L12.7174 102.155L8.41343 97.3105L12.5191 105.522C12.8156 105.23 13.1212 104.947 13.436 104.674ZM10.2058 111.941C10.1101 112.194 10.0143 112.454 9.93898 112.714C9.91893 112.776 9.89132 112.836 9.85679 112.892L10.7943 113.118L10.2058 111.941ZM7.86565 107.24H7.81086L4.19116 105.221L6.51768 108.044L8.84419 110.866C8.96046 110.579 9.09746 110.292 9.23422 110.011L7.86565 107.24ZM47.9076 119.191C47.8891 118.898 48.0281 118.618 48.2727 118.455L55.5399 113.644L49.5387 115.067H49.4977C49.1829 115.195 48.8219 115.115 48.5918 114.865C48.3616 114.615 48.3109 114.248 48.4643 113.945L50.6335 109.525L51.7626 107.26L46.1377 114.787C45.9617 115.021 45.674 115.144 45.3826 115.109C45.0914 115.074 44.8408 114.887 44.7257 114.617C44.6105 114.347 44.648 114.036 44.8239 113.801L49.1281 108.053C48.9639 107.848 48.7928 107.645 48.6149 107.444L48.5396 107.356C48.2318 107.027 47.8965 106.671 47.5475 106.343L46.2814 110.804C46.2008 111.087 45.9756 111.304 45.6907 111.376C45.4058 111.447 45.1046 111.361 44.9004 111.15C44.6961 110.939 44.6202 110.635 44.7008 110.353L49.655 92.9992L42.5316 107.28C42.4008 107.543 42.1397 107.716 41.8466 107.734C41.5537 107.752 41.2733 107.613 41.1111 107.368C40.9489 107.123 40.9295 106.811 41.0603 106.548L42.7915 103.065C42.4358 102.882 42.0707 102.709 41.6967 102.545H41.6488C41.51 102.519 41.3806 102.458 41.2726 102.367C40.9075 102.216 40.538 102.073 40.164 101.936L38.9117 110.681C38.87 110.972 38.6764 111.219 38.4038 111.328C38.131 111.438 37.8207 111.393 37.5894 111.212C37.3582 111.03 37.2415 110.739 37.2832 110.448L39.165 96.5095L35.0592 110.832C34.9784 111.114 34.7532 111.332 34.4683 111.403C34.1837 111.474 33.8823 111.388 33.678 111.177C33.474 110.966 33.3978 110.662 33.4784 110.38L36.2156 100.875C35.8051 100.793 35.3876 100.718 34.9633 100.656L35.1138 103.161C35.127 103.379 35.0528 103.593 34.9078 103.756C34.7626 103.919 34.5585 104.018 34.3407 104.03H34.2928C34.083 104.03 33.8812 103.95 33.7283 103.807C33.5758 103.663 33.484 103.466 33.4717 103.257L33.2664 99.8695C33.2517 99.7811 33.2517 99.6906 33.2664 99.6024L32.5068 87.1142L31.6105 101.861C31.612 101.89 31.612 101.92 31.6105 101.95V102.018C31.6118 102.045 31.6118 102.073 31.6105 102.1V102.162L31.5626 102.237L31.4465 102.285L31.3369 102.394L31.2821 102.435L31.2068 102.49H31.1589L31.0562 102.531H30.5087L30.4265 102.497H30.3786L30.2965 102.442L30.1871 102.333L30.1461 102.278L30.0913 102.203V102.141L30.057 102.059V101.991C30.0552 101.959 30.0552 101.927 30.057 101.895L28.9553 90.3441L27.9358 103.284C27.9171 103.488 27.8222 103.678 27.6703 103.817C27.5181 103.955 27.3199 104.031 27.1147 104.03H27.0461C26.8294 104.012 26.6285 103.91 26.4872 103.744C26.3462 103.579 26.2765 103.364 26.2934 103.147L26.4919 100.67C26.054 100.739 25.6296 100.814 25.1986 100.903L27.9222 110.38C27.9819 110.59 27.956 110.815 27.8502 111.005C27.7444 111.196 27.5671 111.336 27.3575 111.396C27.1479 111.456 26.9232 111.43 26.7325 111.324C26.542 111.219 26.4012 111.041 26.3413 110.832L22.2356 96.5096L22.8446 100.773L24.2132 110.449C24.2609 110.749 24.1446 111.053 23.908 111.244C23.6714 111.436 23.3505 111.487 23.0662 111.378C22.782 111.269 22.5775 111.016 22.5299 110.716L21.2845 102.005C20.8396 102.169 20.4017 102.34 19.9707 102.525C19.5397 102.71 19.1154 102.915 18.6979 103.127L20.4086 106.548C20.5528 106.743 20.604 106.991 20.5485 107.226C20.4928 107.461 20.3362 107.661 20.1206 107.77C19.9048 107.879 19.6517 107.888 19.429 107.794C19.2062 107.699 19.0363 107.512 18.9648 107.281L11.8345 92.9927L15.1807 104.714L16.7887 110.346C16.8486 110.556 16.8228 110.781 16.717 110.971C16.6109 111.162 16.4339 111.303 16.2242 111.362C16.0146 111.422 15.7897 111.397 15.5992 111.291C15.4085 111.185 15.268 111.007 15.2081 110.798L13.9627 106.432C13.404 106.961 12.8828 107.528 12.4025 108.129L16.6381 113.809C16.8141 114.043 16.8517 114.354 16.7363 114.624C16.6212 114.894 16.3708 115.082 16.0794 115.117C15.7883 115.152 15.5003 115.029 15.3243 114.794L9.69943 107.267L13.0251 113.932C13.1211 114.125 13.1371 114.348 13.0701 114.553C13.003 114.758 12.858 114.928 12.6667 115.027C12.4751 115.126 12.2523 115.146 12.0465 115.082H11.9026L5.90145 113.658L9.01506 115.711L9.06986 115.745L13.1756 118.483C13.4199 118.645 13.5591 118.926 13.5407 119.219C13.5222 119.512 13.3486 119.773 13.0856 119.903C12.8225 120.034 12.5102 120.014 12.2656 119.851L9.61738 118.092C10.8628 124.258 18.5405 124.6 30.4812 124.6C42.8463 124.6 50.7773 124.251 51.9883 117.976L49.1828 119.824C48.9382 119.986 48.6257 120.006 48.3627 119.876C48.0996 119.745 47.9261 119.484 47.9076 119.191ZM52.2964 109.922C52.4401 110.209 52.5769 110.504 52.7 110.798L57.3397 105.242L53.7198 107.24H53.665L52.2964 109.922Z" fill="black"/>
<path d="M7.81086 107.24H7.86565L9.23422 110.011C9.09746 110.292 8.96046 110.579 8.84419 110.866L6.51768 108.044L4.19116 105.221L7.81086 107.24Z" fill="#4F2967"/>
<path d="M12.7174 102.155L13.436 104.674C13.1212 104.947 12.8156 105.23 12.5191 105.522L8.41343 97.3105L12.7174 102.155Z" fill="#4F2967"/>
<path d="M16.8231 90.2898L18.7801 101.238L17.9931 101.622L16.83 99.288L16.8231 90.2898Z" fill="#4F2967"/>
<path d="M24.2202 86.4989L26.4715 98.9871C25.883 99.0693 25.3014 99.1718 24.7264 99.2949L24.2201 97.5228L24.2202 86.4989Z" fill="#4F2967"/>
<path d="M37.2764 97.5433L36.7767 99.3088C36.2909 99.213 35.8051 99.1241 35.3124 99.0488L37.2763 87.2517L37.2764 97.5433Z" fill="#4F2967"/>
<path d="M44.6666 90.2898V99.3156L43.517 101.615L42.7165 101.232L44.6666 90.2898Z" fill="#4F2967"/>
<path d="M53.056 97.3038L48.9503 105.467C48.6538 105.175 48.3457 104.893 48.0265 104.619L48.7108 102.162L53.056 97.3038Z" fill="#4F2967"/>
<path d="M52.7 110.798C52.5769 110.504 52.4401 110.209 52.2964 109.922L53.665 107.24H53.7198L57.3397 105.242L52.7 110.798Z" fill="#4F2967"/>
<path d="M51.6395 112.7C51.6395 112.755 51.6395 112.81 51.6805 112.864L50.7089 113.097L51.3384 111.817C51.4479 112.119 51.5506 112.413 51.6395 112.7Z" fill="#4F2967"/>
<path d="M9.93898 112.714C10.0143 112.454 10.1101 112.194 10.2058 111.941L10.7943 113.118L9.85679 112.892C9.89132 112.836 9.91893 112.776 9.93898 112.714Z" fill="#4F2967"/>
<path d="M28.9474 116.347C28.9474 117.371 28.1171 118.202 27.0928 118.202C26.0689 118.202 25.2384 117.371 25.2384 116.347C25.2384 115.323 26.0688 114.493 27.0928 114.493C28.1171 114.493 28.9474 115.323 28.9474 116.347Z" fill="black"/>
<path d="M36.4814 116.347C36.4814 117.371 35.6512 118.202 34.627 118.202C33.6028 118.202 32.7726 117.371 32.7726 116.347C32.7726 115.323 33.6028 114.493 34.627 114.493C35.6512 114.493 36.4814 115.323 36.4814 116.347Z" fill="black"/>
<defs>
<linearGradient id="paint0_linear_1_33" x1="96.5" y1="44.7243" x2="96.5" y2="120.724" gradientUnits="userSpaceOnUse">
<stop stop-color="#EDB675"/>
<stop offset="1" stop-color="#935441"/>
</linearGradient>
</defs>
</svg>
